<?xml version="1.0" encoding="iso-8859-1"?>
<!-- Generator: Adobe Illustrator 16.0.3, SVG Export Plug-In . SVG Version: 6.00 Build 0)  -->
<!DOCTYPE svg PUBLIC "-//W3C//DTD SVG 1.1//EN" "http://www.w3.org/Graphics/SVG/1.1/DTD/svg11.dtd">
<svg version="1.1" id="icons" xmlns="http://www.w3.org/2000/svg" xmlns:xlink="http://www.w3.org/1999/xlink" x="0px" y="0px" viewBox="0 0 1024 1024" xml:space="preserve">
	<symbol id="info" viewBox="0 0 1024 1024">
		<path d="M512,171.584c188.007,0,340.415,152.409,340.415,340.416c0,188.006-152.408,340.416-340.415,340.416
		c-188.006,0-340.415-152.41-340.415-340.416C171.585,323.994,323.994,171.584,512,171.584 M512,102.584
		c-55.24,0-108.865,10.834-159.384,32.202c-48.761,20.625-92.539,50.135-130.116,87.713s-67.088,81.355-87.713,130.116
		C113.419,403.135,102.585,456.76,102.585,512s10.834,108.865,32.202,159.384c20.625,48.762,50.135,92.539,87.713,130.116
		c37.578,37.578,81.355,67.089,130.116,87.714C403.135,910.581,456.76,921.416,512,921.416s108.865-10.835,159.385-32.202
		c48.761-20.625,92.538-50.136,130.115-87.714c37.578-37.577,67.089-81.355,87.713-130.116
		C910.581,620.865,921.415,567.24,921.415,512s-10.834-108.865-32.202-159.384c-20.624-48.762-50.135-92.539-87.713-130.117
		c-37.577-37.578-81.354-67.088-130.115-87.713C620.865,113.419,567.24,102.584,512,102.584L512,102.584z M511.999,786.574
		c-29.286,0-53.112-23.826-53.112-53.113c0-29.286,23.826-53.112,53.112-53.112c29.287,0,53.114,23.826,53.114,53.112
		C565.113,762.748,541.286,786.574,511.999,786.574z M546.5,599.586v-39c0-11.06,2.78-13.459,3.967-14.483
		c4.655-4.018,15.107-7.621,25.215-11.106c35.062-12.089,93.744-32.322,93.744-129.4c0-86.805-70.621-157.426-157.426-157.426
		s-157.426,70.621-157.426,157.426c0,19.054,15.446,34.5,34.5,34.5s34.5-15.446,34.5-34.5c0-48.758,39.667-88.426,88.426-88.426
		c48.758,0,88.426,39.667,88.426,88.426c0,47.882-15.786,53.325-47.236,64.169c-15.517,5.35-33.104,11.414-47.805,24.102
		c-18.503,15.969-27.885,38.417-27.885,66.719v39c0,19.054,15.446,34.5,34.5,34.5S546.5,618.64,546.5,599.586z"/>
	</symbol>
	<symbol id="warning" viewBox="0 0 1024 1024">
		<path d="M511.997,172.229c13.275,0,26.549,9.78,36.621,29.339l296.555,575.974 c20.142,39.119,0.621,71.126-43.379,71.126H222.207c-44,0-63.521-32.007-43.379-71.126l296.548-575.974 C485.446,182.008,498.722,172.229,511.997,172.229 M511.997,103.229c0,0-0.001,0-0.001,0c-22.23,0-43.698,7.62-62.083,22.034 c-14.307,11.217-26.379,26.263-35.882,44.72L117.481,745.957c-9.592,18.629-14.811,37.688-15.513,56.648 c-0.812,21.919,4.578,43.046,15.587,61.097s27.325,32.515,47.185,41.826c17.179,8.056,36.513,12.14,57.467,12.14h579.586 c20.953,0,40.288-4.084,57.467-12.139c19.859-9.313,36.175-23.776,47.185-41.827c11.009-18.051,16.398-39.178,15.587-61.097 c-0.702-18.961-5.922-38.02-15.514-56.649L609.963,169.982c-9.503-18.457-21.575-33.503-35.882-44.72 C555.695,110.848,534.227,103.229,511.997,103.229L511.997,103.229z M511.999,680.349c-29.286,0-53.112,23.826-53.112,53.112 c0,29.287,23.826,53.113,53.112,53.113c29.287,0,53.114-23.826,53.114-53.113C565.113,704.175,541.286,680.349,511.999,680.349z M546.5,608.229V378.597c0-19.054-15.446-34.5-34.5-34.5s-34.5,15.446-34.5,34.5v229.632c0,19.054,15.446,34.5,34.5,34.5 S546.5,627.283,546.5,608.229z"/>
	</symbol>
	<symbol id="error" viewBox="0 0 1024 1024">
		<path d="M889.213,352.616c-20.624-48.762-50.135-92.539-87.713-130.117c-37.577-37.578-81.354-67.088-130.115-87.713 C620.865,113.419,567.24,102.584,512,102.584s-108.865,10.834-159.384,32.202c-48.761,20.625-92.539,50.135-130.116,87.713 s-67.088,81.355-87.713,130.116C113.419,403.135,102.585,456.76,102.585,512s10.834,108.865,32.202,159.384 c20.625,48.762,50.135,92.539,87.713,130.116c37.578,37.578,81.355,67.089,130.116,87.714 C403.135,910.581,456.76,921.416,512,921.416s108.865-10.835,159.385-32.202c48.761-20.625,92.538-50.136,130.115-87.714 c37.578-37.577,67.089-81.355,87.713-130.116C910.581,620.865,921.415,567.24,921.415,512S910.581,403.135,889.213,352.616z M512,852.416c-188.006,0-340.415-152.41-340.415-340.416c0-81.759,28.833-156.777,76.872-215.465l479.009,479.009 C668.777,823.583,593.759,852.416,512,852.416z M776.18,726.676L297.324,247.821c58.572-47.654,133.281-76.237,214.676-76.237 c188.007,0,340.415,152.409,340.415,340.416C852.415,593.395,823.833,668.104,776.18,726.676z"/>
	</symbol>
	<symbol id="add" viewBox="0 0 1024 1024">
		<path id="add" d="M512,886.916c-19.054,0-34.5-15.446-34.5-34.5V546.5H171.584c-19.054,0-34.5-15.446-34.5-34.5 s15.446-34.5,34.5-34.5H477.5V171.584c0-19.054,15.446-34.5,34.5-34.5s34.5,15.446,34.5,34.5V477.5h305.916 c19.054,0,34.5,15.446,34.5,34.5s-15.446,34.5-34.5,34.5H546.5v305.916C546.5,871.47,531.054,886.916,512,886.916z"/>
	</symbol>
	<symbol id="remove" viewBox="0 0 1024 1024">
		<path d="M271.29,787.211c-8.83,0-17.659-3.368-24.395-10.104c-13.473-13.474-13.473-35.317,0-48.791L463.21,512 L246.895,295.685c-13.473-13.473-13.473-35.317,0-48.79c13.473-13.474,35.317-13.474,48.79,0L512,463.209l216.314-216.314 c13.475-13.474,35.316-13.474,48.791,0c13.473,13.473,13.473,35.317,0,48.79L560.79,512l216.316,216.315 c13.473,13.474,13.473,35.317,0,48.791c-13.475,13.473-35.316,13.473-48.791,0L512,560.79L295.685,777.106 C288.948,783.843,280.119,787.211,271.29,787.211z"/>
	</symbol>
	<symbol id="loading" viewBox="0 0 1024 1024">
		<path d="M 512,921 C 402.814,921 300.163,878.251 222.956,801.044 145.749,723.839 103,621.188 103,512 103,402.814 145.794,300.207 223,223 300.207,145.793 402.814,104 512,104 c 39.504,0 78.451,4.892 116,16 17.569,5.196 28.197,23.429 23,41 -4.148,14.021 -17.397,24 -32,24 -3.178,0 -6.64,-0.392 -9.73,-1.305 C 577.847,174.4 545.122,170 512,170 323.247,170 170,323.247 170,512 c 0,188.755 153.247,342 342,342 188.754,0 342,-153.246 342,-342 0,-1.12 0.292,-2.236 0.268,-3.353 -0.013,-0.572 -0.024,-1.144 -0.032,-1.716 l -0.39,-28.197 -76.136,59.454 c -5.813,4.54 -13.076,7.04 -20.452,7.04 -7.405,0 -14.418,-2.389 -20.281,-6.908 -12.022,-9.266 -16.237,-25.479 -10.25,-39.427 l 79.617,-185.46 c 4.875,-11.355 15.556,-19.024 27.874,-20.013 0.884,-0.071 1.781,-0.107 2.666,-0.107 11.357,0 21.781,5.691 27.928,15.236 7.826,13.283 16.543,28.285 17.756,30.696 10.022,21.466 18.205,43.938 24.325,66.798 C 916.101,440.435 920,476.084 920,512 920,621.187 878.25,723.838 801.044,801.045 723.837,878.251 621.185,921 512,921 Z"/>
	</symbol>
	<symbol id="menu" viewBox="0 0 1024 1024">
		<path d="M887.474,253.477H136.526c-19.054,0-34.5-15.446-34.5-34.5s15.446-34.5,34.5-34.5h750.947 c19.054,0,34.5,15.446,34.5,34.5S906.527,253.477,887.474,253.477z M921.974,511.713c0-19.054-15.446-34.5-34.5-34.5H136.526 c-19.054,0-34.5,15.446-34.5,34.5c0,19.054,15.446,34.5,34.5,34.5h750.947C906.527,546.213,921.974,530.768,921.974,511.713z M921.974,802.447c0-19.054-15.446-34.5-34.5-34.5H136.526c-19.054,0-34.5,15.446-34.5,34.5s15.446,34.5,34.5,34.5h750.947 C906.527,836.947,921.974,821.501,921.974,802.447z"/>
	</symbol>
	<symbol id="burger" viewBox="0 0 1024 1024">
		<path d="m 512.70656,251.28813 h -1.41313 c -38.108,0 -69,-30.892 -69,-69 0,-38.108 30.892,-69 69,-69 h 1.41113 c 38.10802,0 69,30.892 69,69 0,38.108 -30.89198,69 -68.998,69 z m 69,262.71387 c 0,-38.108 -30.892,-69 -69,-69 h -1.41313 c -38.108,0 -69,30.892 -69,69 0,38.108 30.892,69 69,69 h 1.41113 c 38.10802,0 69.002,-30.89 69.002,-69 z m 0,321.40532 c 0,-38.108 -30.892,-69 -69,-69 h -1.41313 c -38.108,0 -69,30.892 -69,69 0,38.108 30.892,69 69,69 h 1.41113 c 38.10802,0 69.002,-30.892 69.002,-69 z"/>
	</symbol>
</svg>
